<svg height="511pt" viewBox="0 0 511.99898 511" width="511pt" xmlns="http://www.w3.org/2000/svg"><path d="m403.089844 298.902344c-18.414063 0-31.8125-9.417969-43.628906-17.730469-9.363282-6.585937-17.449219-12.269531-26.371094-12.269531s-17.007813 5.683594-26.371094 12.269531c-4.40625 3.097656-8.964844 6.300781-13.953125 9.144531-7.195313 4.101563-16.355469 1.59375-20.457031-5.605468-4.105469-7.195313-1.59375-16.355469 5.601562-20.457032 3.753906-2.140625 7.542969-4.800781 11.550782-7.621094 11.820312-8.3125 25.214843-17.730468 43.628906-17.730468 18.414062 0 31.808594 9.417968 43.628906 17.730468 9.363281 6.582032 17.449219 12.269532 26.371094 12.269532 8.9375 0 17.09375-5.691406 26.539062-12.277344 16.898438-11.792969 40.042969-27.9375 74.539063-9.152344 7.277343 3.960938 9.964843 13.070313 6 20.347656-3.960938 7.273438-13.070313 9.960938-20.34375 6-17.429688-9.492187-26.261719-4.289062-43.03125 7.410157-11.875 8.28125-25.335938 17.671875-43.703125 17.671875zm0 0" fill="#4a696f"/><path d="m152.886719 38.007812 37.496093 64.957032-129.910156 74.988281-37.496094-64.957031c-20.695312-35.855469-8.390624-81.75 27.460938-102.449219 35.855469-20.695313 81.753906-8.394531 102.449219 27.460937zm0 0" fill="#b4d2d7"/><path d="m152.886719 38.007812 37.496093 64.957032-64.957031 37.492187-74.988281-129.910156c35.859375-20.695313 81.753906-8.394531 102.449219 27.460937zm0 0" fill="#87a0af"/><path d="m107.769531 58.859375-10.984375 40.980469c-2.355468 8.78125-11.089844 12.804687-18.1875 10.496094-8.046875-1.9375-12.84375-10.25-10.648437-18.445313l9.335937-34.832031 1.648438-6.148438c2.085937-7.785156 10.398437-12.585937 18.1875-10.5 8.195312 2.199219 12.996094 10.511719 10.648437 18.449219zm0 0" fill="#e1ebf0"/><path d="m107.769531 58.859375-9.335937 34.832031-21.148438-36.632812 1.648438-6.148438c2.085937-7.785156 10.398437-12.585937 18.1875-10.5 8.195312 2.199219 12.996094 10.511719 10.648437 18.449219zm0 0" fill="#b4d2d7"/><path d="m71.375 297.050781-7.800781 29.097657-31.277344-1.097657-26.652344-14.648437 7.6875-28.6875 30.898438-.230469zm0 0" fill="#b4d2d7"/><path d="m332.867188 121.171875.691406 30.386719-16.179688 27.394531-29.09375-7.800781-1.351562-29.765625 16.835937-28.015625zm0 0" fill="#87a0af"/><path d="m371.632812 162.527344c-4.28125 15.984375-22.398437 25.402344-36.632812 21.144531l-17.621094-4.71875 15.488282-57.78125 17.621093 4.722656c15.980469 4.28125 25.429688 20.652344 21.144531 36.632813zm0 0" fill="#87a0af"/><path d="m5.644531 310.402344-4.613281 17.210937c-4.285156 15.980469 5.164062 32.351563 21.144531 36.632813 15.164063 4.066406 32.832031-6.132813 36.894531-21.296875l4.503907-16.800781zm0 0" fill="#b4d2d7"/><path d="m219.027344 152.589844 127.929687 221.625 10.222657-2.089844c12.644531-2.101562 25.207031 3.460938 31.65625 14.632812 4.203124 7.277344 1.785156 16.292969-5.492188 20.488282l-51.960938 29.996094c-7.277343 4.199218-16.292968 1.785156-20.492187-5.492188l-74.988281-129.910156c-4.199219-7.273438-13.214844-9.6875-20.488282-5.492188-7.277343 4.203125-9.691406 13.21875-5.492187 20.492188l74.988281 129.910156c4.199219 7.273438 1.78125 16.289062-5.492187 20.488281l-51.964844 29.996094c-7.273437 4.199219-16.289063 1.78125-20.488281-5.492187-6.449219-11.171876-4.984375-24.835938 3.160156-34.734376l6.921875-7.804687-127.328125-220.585937-18.34375 68.433593-58.042969-15.335937 26.585938-99.167969c2.082031-7.785156 7.078125-14.136719 13.835937-18.035156l129.128906-74.539063c7.015626-4.046875 15.011719-5.199218 22.796876-3.109375l98.089843 26.507813-15.484375 57.78125zm0 0" fill="#e1ebf0"/><path d="m219.027344 152.589844 127.929687 221.625 10.222657-2.089844c12.644531-2.101562 25.207031 3.460938 31.65625 14.632812 4.203124 7.277344 1.785156 16.292969-5.492188 20.488282l-51.960938 29.996094c-7.277343 4.199218-16.292968 1.785156-20.492187-5.492188l-74.988281-129.910156c-4.199219-7.273438-13.214844-9.6875-20.488282-5.492188l-97.484374-168.882812 64.953124-37.492188c7.015626-4.050781 15.011719-5.199218 22.796876-3.113281l98.089843 26.511719-15.484375 57.78125zm0 0" fill="#b4d2d7"/><path d="m173.90625 164.433594c4.050781 7.015625 1.78125 16.289062-5.492188 20.488281l-25.980468 15c-7.277344 4.199219-16.441406 1.523437-20.492188-5.492187-4.199218-7.273438-1.78125-16.289063 5.492188-20.492188l25.984375-14.996094c7.273437-4.199218 16.289062-1.78125 20.488281 5.492188zm0 0" fill="#b4d2d7"/><path d="m173.90625 164.433594c4.050781 7.015625 1.78125 16.289062-5.492188 20.488281l-12.992187 7.5-14.996094-25.980469 12.992188-7.5c7.273437-4.199218 16.289062-1.78125 20.488281 5.492188zm0 0" fill="#87a0af"/><path d="m140.644531 236.378906c5.496094-6.195312 14.976563-6.765625 21.175781-1.269531 6.195313 5.5 6.765626 14.976563 1.265626 21.175781-5.496094 6.199219-14.976563 6.765625-21.171876 1.269532-6.199218-5.496094-6.765624-14.976563-1.269531-21.175782" fill="#b4d2d7"/><path d="m192.605469 206.386719c5.5-6.199219 14.980469-6.769531 21.175781-1.269531 6.199219 5.496093 6.765625 14.976562 1.269531 21.171874-5.496093 6.199219-14.976562 6.769532-21.175781 1.269532-6.195312-5.496094-6.765625-14.976563-1.269531-21.171875" fill="#87a0af"/><g fill="#8b3cba"><path d="m331.234375 37.09375c-2.621094-7.859375-11.117187-12.105469-18.976563-9.488281-7.859374 2.621093-12.105468 11.117187-9.488281 18.976562 2.621094 7.859375 11.117188 12.105469 18.976563 9.484375 7.859375-2.617187 12.105468-11.113281 9.488281-18.972656zm0 0"/><path d="m511.207031 367.109375c-2.617187-7.859375-11.113281-12.105469-18.972656-9.484375-7.859375 2.617188-12.105469 11.113281-9.488281 18.972656 2.621094 7.859375 11.113281 12.105469 18.972656 9.488282 7.859375-2.621094 12.109375-11.117188 9.488281-18.976563zm0 0"/><path d="m390.234375 492.75c-2.621094-7.859375-11.117187-12.109375-18.976563-9.488281-7.855468 2.621093-12.105468 11.113281-9.484374 18.972656 2.617187 7.859375 11.113281 12.109375 18.972656 9.488281s12.105468-11.113281 9.488281-18.972656zm0 0"/><path d="m496.996094 57.5h-15v-15c0-8.285156-6.714844-15-15-15s-15 6.714844-15 15v15h-15c-8.28125 0-15 6.714844-15 15 0 8.28125 6.71875 15 15 15h15v15c0 8.28125 6.714844 15 15 15s15-6.71875 15-15v-15h15c8.285156 0 15-6.71875 15-15 0-8.285156-6.714844-15-15-15zm0 0"/></g><path d="m106 452.496094h-15v-15c0-8.285156-6.71875-15-15-15-8.285156 0-15 6.714844-15 15v15h-15c-8.285156 0-15 6.714844-15 15s6.714844 15 15 15h15v15c0 8.285156 6.714844 15 15 15 8.28125 0 15-6.714844 15-15v-15h15c8.28125 0 15-6.714844 15-15s-6.71875-15-15-15zm0 0" fill="#da90f8"/></svg>